<svg width="36" height="24" viewBox="0 0 36 24" fill="none" xmlns="http://www.w3.org/2000/svg">
<g clip-path="url(#clip0_964_4792)">
<path d="M10.4321 -6.1038e-05C11.4101 -6.1038e-05 12.3881 0.0940559 13.3195 0.282291C14.1113 0.470526 14.8564 0.799937 15.555 1.27053C16.1604 1.74111 16.6727 2.35288 16.9987 3.05876C17.3713 3.95288 17.5576 4.89406 17.511 5.83523C17.5576 6.87053 17.2781 7.90582 16.7658 8.79994C16.207 9.647 15.4153 10.3058 14.5304 10.7294C15.7878 11.0588 16.859 11.8588 17.5576 12.8941C18.2561 14.0235 18.5821 15.3411 18.5821 16.6588C18.5821 17.7411 18.3959 18.7764 17.9301 19.7176C17.511 20.5646 16.9056 21.2705 16.207 21.8823C15.4618 22.447 14.577 22.8705 13.6921 23.1058C12.7607 23.3882 11.7827 23.4823 10.8047 23.4823H0V-0.0471191H10.4321V-6.1038e-05ZM9.78008 9.50582C10.5252 9.55288 11.3169 9.31759 11.9224 8.847C12.5278 8.32935 12.8538 7.52935 12.7607 6.68229C12.7607 6.2117 12.6675 5.74112 12.4812 5.31759C12.295 4.98818 12.0621 4.70582 11.7361 4.51759C11.4101 4.32935 11.0375 4.14111 10.6649 4.09405C10.2458 3.99994 9.82665 3.99994 9.4075 3.99994H4.84347V9.50582H9.78008ZM10.0595 19.5764C10.5252 19.5764 10.9909 19.5294 11.4101 19.4352C11.8292 19.3411 12.2018 19.1529 12.5744 18.9176C12.9004 18.6823 13.1798 18.3529 13.3661 17.9764C13.599 17.5058 13.6921 16.9882 13.6455 16.4705C13.7387 15.4823 13.3661 14.5411 12.6675 13.8823C11.9224 13.3176 11.0375 13.0823 10.1061 13.1293H4.84347V19.6235H10.0595V19.5764Z" fill="#98999A"/>
<path d="M25.4748 19.4823C26.2665 20.1882 27.2911 20.5647 28.3157 20.5176C29.154 20.5176 29.9457 20.2823 30.5977 19.8117C31.1566 19.4353 31.5291 18.9176 31.762 18.3058H35.6275C35.2083 20.047 34.1837 21.6 32.7866 22.6823C31.436 23.6235 29.806 24.047 28.1294 24C26.9651 24 25.8008 23.8117 24.6831 23.3411C23.7051 22.9176 22.8202 22.3058 22.1216 21.5058C21.4231 20.6588 20.8642 19.7176 20.4916 18.6823C20.0725 17.5058 19.8862 16.2823 19.9328 15.0588C19.9328 13.8353 20.1191 12.6588 20.5382 11.4823C21.6559 8.1882 24.7297 5.97643 28.176 6.02349C29.4334 5.97643 30.6443 6.30584 31.762 6.87055C32.74 7.43525 33.6249 8.18819 34.2769 9.12937C34.9289 10.1176 35.4412 11.2 35.674 12.3764C35.9535 13.6 36.0466 14.9176 36 16.1882H24.4502C24.3105 17.3647 24.6831 18.5411 25.4748 19.4823ZM30.5046 10.4941C29.8526 9.83525 28.9677 9.50584 28.0363 9.5529C27.4308 9.5529 26.8254 9.64702 26.3131 9.92937C25.894 10.1647 25.5214 10.4941 25.1954 10.8705C24.9159 11.247 24.7297 11.6235 24.5899 12.0941C24.4968 12.4705 24.4037 12.847 24.4037 13.2235H31.5757C31.4826 12.2353 31.11 11.2941 30.5046 10.4941Z" fill="#98999A"/>
<path d="M32.414 1.55298H23.4722V3.85886H32.414V1.55298Z" fill="#98999A"/>
</g>
<defs>
<clipPath id="clip0_964_4792">
<rect width="36" height="24" fill="white"/>
</clipPath>
</defs>
</svg>
